<svg xmlns="http://www.w3.org/2000/svg" viewBox="0 0 320 160" width="320" height="160">
  <!-- ورقتان خضراوتان متقاطعتان خلف الرمز -->
  <g>
    <path d="M160 20 C120 25, 95 55, 100 90 C135 90, 160 65, 160 20 Z" fill="#4FC3A1"/>
    <path d="M160 20 C200 25, 225 55, 220 90 C185 90, 160 65, 160 20 Z" fill="#2E8B57"/>
  </g>
  <!-- هاون وميدقة (mortar & pestle) -->
  <g>
    <path d="M132 92 C132 112, 146 126, 160 126 C174 126, 188 112, 188 92 Z" fill="#FFFFFF" stroke="#2E8B57" stroke-width="4"/>
    <ellipse cx="160" cy="92" rx="28" ry="7" fill="#FFFFFF" stroke="#2E8B57" stroke-width="4"/>
    <rect x="150" y="55" width="8" height="42" rx="4" fill="#2E8B57" transform="rotate(28 154 76)"/>
  </g>
  <!-- الصليب الطبي -->
  <g>
    <rect x="186" y="58" width="26" height="26" rx="6" fill="#2E8B57"/>
    <rect x="195" y="64" width="8" height="14" rx="2" fill="#FFFFFF"/>
    <rect x="189" y="70" width="20" height="8" rx="2" fill="#FFFFFF"/>
  </g>
  <!-- اسم التطبيق -->
  <text x="160" y="150" text-anchor="middle" font-family="Cairo, Arial, sans-serif" font-size="30" font-weight="800" fill="#2E8B57">صيدليتك</text>
</svg>
