<svg xmlns="http://www.w3.org/2000/svg" viewBox="0 0 200 200" width="200" height="200">
  <g>
    <path d="M100 15 C60 20, 35 50, 40 85 C75 85, 100 60, 100 15 Z" fill="#4FC3A1"/>
    <path d="M100 15 C140 20, 165 50, 160 85 C125 85, 100 60, 100 15 Z" fill="#2E8B57"/>
  </g>
  <g>
    <path d="M72 87 C72 107, 86 121, 100 121 C114 121, 128 107, 128 87 Z" fill="#FFFFFF" stroke="#2E8B57" stroke-width="4"/>
    <ellipse cx="100" cy="87" rx="28" ry="7" fill="#FFFFFF" stroke="#2E8B57" stroke-width="4"/>
    <rect x="90" y="50" width="8" height="42" rx="4" fill="#2E8B57" transform="rotate(28 94 71)"/>
  </g>
  <g>
    <rect x="126" y="53" width="26" height="26" rx="6" fill="#2E8B57"/>
    <rect x="135" y="59" width="8" height="14" rx="2" fill="#FFFFFF"/>
    <rect x="129" y="65" width="20" height="8" rx="2" fill="#FFFFFF"/>
  </g>
</svg>
